# xmcd
#
# Track frame offsets: 
#        150
#        22342
#        49124
#        72075
#        95552
#
# Disc length: 1362 seconds
#
# Revision: 0
# Processed by: cddbd v1.5.2PL0 Copyright (c) Steve Scherf et al.
# Submitted via: ExactAudioCopy v1.0b3
#
DISCID=41055005
DTITLE=Beat Theory - Type Of Music
DYEAR=1900
DGENRE=
TTITLE0=Type Of Music (Consonance Mix)
TTITLE1=Type Of Music (Dissonance Mix)
TTITLE2=Type Of Music (Helmholtz Mix)
TTITLE3=Type Of Music (Overtone Mix)
TTITLE4=Type Of Music (Amplitude Intro)
EXTD=
EXTT0=
EXTT1=
EXTT2=
EXTT3=
EXTT4=
PLAYORDER=
